<?xml version="1.0" encoding="UTF-8" standalone="no"?><svg xmlns:svg="http://www.w3.org/2000/svg" xmlns="http://www.w3.org/2000/svg" version="1.1" style="overflow:visible" viewBox="-250 -250 500 500" height="150px" width="150px"><rect fill-opacity="0" fill="rgb(0,0,0)" height="500" width="500" y="-250" x="-250" /><svg version="1.1" y="-250" x="-250" viewBox="-250 -250 500 500" height="150px" width="150px" style="overflow:visible"><g transform="rotate(0,0,0)" stroke-linejoin="round" fill="#fff"><path stroke-linecap="butt" stroke-linejoin="round" stroke-width="3" stroke-opacity="1" stroke="rgb(68,68,68)" fill="rgb(255,255,255)" d="m0.004999-198.096l-20.6321 8.74196l-4.1056 12.7212l-24.2351 22.776l7.86731 29.5776l12.0656 7.01877v34.4886l13.4035 7.79478v24.2899l6.66155 6.71439v28.3231l-24.348-14.163l-2.4436-9.16814l-20.88-12.143v-15.5889l-29.6542-17.2451v-14.0376l-21.4962-21.6504l-31.6977 9.75393l-12.9875-2.78468l-17.833 13.6266l-2.79832 22.373l8.88276 9.94035l7.46621 32.5292l29.3637 7.92418l12.0656-7.01497l29.6499 17.2451l13.4035-7.79493l20.8844 12.1431l9.10135-2.45375l24.351 14.1593l-24.348 14.1592l-9.10531-2.45376l-20.88 12.1468l-13.4036-7.79493l-29.6498 17.2451l-12.0696-7.01878l-29.3637 7.928l-7.46226 32.5292l-8.88658 9.93668l2.79834 22.3686l17.833 13.6267l12.9875-2.77706l31.7007 9.75392l21.4962-21.6534v-14.0338l29.6499-17.2451v-15.5889l20.8844-12.1468l2.43964-9.16815l24.351-14.163v28.3216l-6.66157 6.71439v24.2899l-13.4035 7.79493v34.4886l-12.0665 7.01879l-7.86657 29.5776l24.2351 22.776l4.101619 12.7175l20.632 8.74577l20.6321-8.74577l4.10559-12.7175l24.2351-22.776l-7.86658-29.5776l-12.0665-7.01879v-34.4886l-13.4026-7.79493v-24.2899l-6.66244-6.71439v-28.3216l24.348 14.1592l2.43963 9.16814l20.8844 12.1469v15.5889l29.6499 17.245v14.0338l21.4932 21.6534l31.7007-9.75393l12.9842 2.78087l17.833-13.6267l2.79832-22.3686l-8.88276-9.94033l-7.46227-32.529201l-29.3637-7.92801l-12.0665 7.01878l-29.6543-17.245l-13.4026 7.79478l-20.88-12.1467l-9.10531 2.45743l-24.348-14.163l24.348-14.1592l9.10136 2.45376l20.8844-12.143l13.4026 7.79477l29.6499-17.245l12.0703 7.01497l29.3593-7.92419l7.46621-32.529201l8.88278-9.93666l-2.79833-22.373l-17.833-13.6266l-12.9875 2.78088l-31.6977-9.75393l-21.4962 21.649v14.0375l-29.6528 17.2451v15.5889l-20.8815 12.1429l-2.44287 9.17195l-24.348 14.1592v-28.3187l6.6617-6.71439v-24.2899l13.4026-7.79479v-34.4886l12.0665-7.01877l7.86657-29.5776l-24.2336-22.776l-4.10163-12.7212z" /></g></svg></svg>