<?xml version="1.0" encoding="UTF-8" standalone="no"?><svg xmlns:svg="http://www.w3.org/2000/svg" xmlns="http://www.w3.org/2000/svg" version="1.1" style="overflow:visible" viewBox="-250 -250 500 500" height="500px" width="500px"><rect fill-opacity="0" fill="rgb(0,0,0)" height="500" width="500" y="-250" x="-250" /><svg version="1.1" y="-250" x="-250" viewBox="-250 -250 500 500" height="150px" width="150px" style="overflow:visible"><g transform="rotate(22,0,0)" stroke-linejoin="round" fill="#fff"><path stroke-linecap="butt" stroke-linejoin="round" stroke-width="2" stroke-opacity="1" stroke="rgb(135,221,236)" fill="rgb(255,255,255)" d="m-0.186001-195.2832v0.01855c-5.51095 0.700515-12.6362 18.7912-12.6362 24.8021c0 4.48151 7.10644 12.394 7.53385 21.3545c0.0983 2.05941-0.16885 10.4113-0.598 21.4236c-0.45715-1.23064-0.8041-2.25348-0.90949-2.7818c-1.12882-5.66341-12.5966-15.3338-18.249-17.8597c-3.75009-1.67554-10.9941-1.17938-12.096-0.0615c-1.10171 1.11787-0.50168 8.46954 1.65609 11.9595c3.25289 5.26101 15.3851 15.0751 20.7212 17.3062c1.05867 0.4427 5.13477 0.55478 8.49759 0.5969c-0.51132 12.3241-1.07462 25.1916-1.73566 39.4271c-0.99929-2.57697-1.87872-4.95537-2.08005-5.96531c-1.57463-7.89992-17.5754-21.3906-25.4602-24.9141c-5.23103-2.3373-15.3319-1.64608-16.8688-0.0867c-1.53694 1.55925-0.70151 11.8121 2.30841 16.6809c4.5374 7.33868 21.4609 21.031 28.9025 24.1436c1.59854 0.66841 8.03264 0.79749 12.6867 0.83928c-0.65087 13.7325-0.94104 19.7257-1.36612 28.5355l-19.9701 11.5074c-7.80367-4.0107-13.1483-6.75601-25.3378-13.0341c2.29086-4.04462 5.3974-9.6715 5.61701-11.388c1.02156-7.98977-2.39607-29.4657-6.49384-37.0578c-2.71813-5.03616-11.196-10.8844-13.3172-10.3353c-2.12107 0.54903-7.76842 8.9346-8.35644 14.625c-0.88593 8.5785 2.81614 29.1566 8.88183 34.4672c0.77555 0.67904 2.39895 2.63013 4.134769 4.78241c-12.6796-6.54596-24.1247-12.4944-35.0703-18.2147c1.64487-2.92845 3.58403-6.507 3.72894-7.64388c0.7327-5.72766-1.71567-21.1246-4.65282-26.5674c-1.94893-3.61061-8.024291-7.80578-9.54496-7.4123c-1.52053 0.39389-5.57598 6.41098-5.9975 10.4908c-0.63527 6.1499 2.0219 20.9003 6.37065 24.7071c0.40558 0.35568 1.11767 1.16351 1.95686 2.17412c-9.76745-5.13478-17.1466-9.07948-18.8836-10.1942c-7.55948-4.8497-10.8678-14.9499-14.7562-17.1912c-5.21393-3.0051-24.4715-5.89028-27.8346-1.47602l-0.01849-0.0117c-0.01849 0.0316-0.03721 0.054-0.05008 0.0832c-0.01849 0.0315-0.02773 0.0539-0.04645 0.0797l0.01849 0.0117c-2.14782 5.1148 9.98373 20.3209 15.1981 23.3256c3.88781 2.24068 14.3029 0.0529 22.2899 4.1638c1.83568 0.94468 8.94732 5.35203 18.2849 11.2288c-1.29617-0.22009-2.35534-0.43101-2.86649-0.60411c-5.47757-1.85585-19.6016 3.22388-24.6197 6.84801c-3.32872 2.40428-6.5177 8.91402-6.0988 10.4257c0.41876 1.51139 7.09451 4.6677 11.2011 4.54723c6.19046-0.1817 20.7716-5.76347 25.3738-9.26093c0.91377-0.69351 3.05098-4.160651 4.7688-7.04698c10.4358 6.60404 21.3156 13.5241 33.334699 21.2137c-2.7354-0.42462-5.23795-0.85198-6.21479-1.18292c-7.64091-2.58887-27.3439 4.49864-34.3421 9.55394c-4.64304 3.35383-9.09626 12.4306-8.51228 14.5388c0.58427 2.10842 9.89725 6.51319 15.6255 6.34513c8.63504-0.25354 28.9758-8.03651 35.397-12.9147c1.37909-1.047871 4.70665-6.54581 7.07004-10.5488c11.5857 7.42751 16.6415 10.6724 24.0685 15.443v23.0222c-7.38247 4.74203-12.4326 7.98561-23.975 15.3856c-2.36341-4.002831-5.69429-9.50073-7.07365-10.5488c-6.42043-4.87816-26.7625-12.6612-35.397-12.9145c-5.7281-0.16818-15.0384 4.23671-15.6227 6.34513c-0.58425 2.10829 3.86551 11.185 8.5087 14.5388c6.99893 5.05514 26.702 12.1425 34.3421 9.55392c0.97684-0.33095 3.47968-0.75838 6.2148-1.18293c-12.0184 7.68903-22.9 14.6092-33.3347 21.2137c-1.71812-2.88632-3.8514-6.35319-4.76507-7.04698c-4.6026-3.49719-19.1829-9.07906-25.3738-9.26092c-4.1067-0.12062-10.7859 3.03584-11.2048 4.54722c-0.41857 1.51151 2.77395 8.025 6.10253 10.4293c5.01749 3.62413 19.1383 8.70011 24.6168 6.84442c0.51134-0.17279 1.57349-0.38394 2.86981-0.60412c-9.3383 5.87689-16.4501 10.2841-18.2849 11.2288c-7.98703 4.110629-18.4058 1.92297-22.2928 4.16382c-5.21392 3.00523-17.3452 18.2105-15.1981 23.3256l-0.01849 0.0117c0.01849 0.0312 0.02773 0.0571 0.04645 0.0833c0.01849 0.0297 0.03334 0.0521 0.04633 0.0796l0.01849-0.0117c3.36327 4.41409 22.6195 1.52935 27.8346-1.47602c3.8878-2.24067 7.19999-12.341 14.7592-17.1911c1.73739-1.11471 9.11598-5.05932 18.8836-10.1942c-0.839 1.010529-1.55464 1.8225-1.9603 2.17772c-4.34876 3.80771-7.00241 18.5584-6.36706 24.7071c0.42135 4.07986 4.47294 10.0936 5.99375 10.4872c1.52053 0.39363 7.59992-3.80181 9.54871-7.4123c2.93758-5.44272 5.3856-20.8399 4.65282-26.5674c-0.14472-1.13674-2.08752-4.71557-3.73238-7.64389c10.947-5.72005 22.3949-11.6681 35.0746-18.2147c-1.73611 2.15256-3.36284 4.10329-4.13835 4.78242c-6.06629 5.31133-9.76788 25.8888-8.88185 34.4672c0.58797 5.69102 6.23884 14.0766 8.35988 14.625c2.1212 0.54911 10.599-5.29882 13.3175-10.3353c4.09764-7.59213 7.51169-29.0674 6.4901-37.0578c-0.2195-1.71625-3.32239-7.34342-5.61326-11.388c12.2362-6.30228 17.5797-9.04874 25.4314-13.0846l19.9701 11.511c0.42245 8.75201 0.7143 14.7429 1.36258 28.419c-4.65427 0.0418-11.0881 0.17076-12.6867 0.83929c-7.44203 3.1116-24.365 16.8045-28.9025 24.1436c-3.00998 4.86823-3.84521 15.121-2.30827 16.6809c1.53678 1.55926 11.6374 2.25062 16.8688-0.0867c7.88499-3.52333 23.8858-17.0143 25.4602-24.9141c0.20132-1.009981 1.08075-3.38834 2.08005-5.9653c0.66107 14.2352 1.22434 27.1036 1.73566 39.4271c-3.36283 0.042-7.43886 0.1539-8.4976 0.5969c-5.33523 2.23063-17.4675 12.0455-20.7212 17.3062c-2.15804 3.48999-2.75785 10.8416-1.6561 11.9595c1.10192 1.1178 8.346209 1.61389 12.0963-0.0615c5.65269-2.52578 17.1207-12.1964 18.249-17.8597c0.10577-0.52848 0.45235-1.55105 0.9095-2.78195c0.42914 11.0117 0.69633 19.3635 0.59799 21.4236c-0.42748 8.96033-7.53386 16.8721-7.53386 21.3546c0 6.01045 7.12502 24.1004 12.6361 24.8021v0.0216c0.0353 0.00096 0.0631 0.00096 0.0946 0c0.0353 0.00076 0.0631 0.00061 0.0947 0.005v-0.026c5.51095-0.70053 12.636-18.7912 12.636-24.8021c0-4.48138-7.10643-12.3938-7.5337-21.3545c-0.0983-2.059411 0.16885-10.4113 0.59781-21.4235c0.45715 1.23061 0.80431 2.25347 0.90969 2.78195c1.1288 5.66355 12.5965 15.3338 18.249 17.8596c3.75008 1.67571 10.9941 1.17953 12.096 0.0615c1.10172-1.11765 0.501689-8.46966-1.6561-11.9594c-3.25288-5.26102-15.3851-15.075-20.7198-17.3062c-1.05848-0.44327-5.1349-0.5549-8.49773-0.5969c0.511329-12.3241 1.07462-25.1916 1.73567-39.4271c0.99928 2.5771 1.8787 4.95539 2.080029 5.96532c1.57463 7.90007 17.5754 21.3906 25.4602 24.9141c5.23105 2.33715 15.3319 1.64608 16.8688 0.0867c1.53693-1.55925 0.7015-11.812-2.30843-16.680901c-4.53741-7.33853-21.4609-21.031-28.9025-24.1436c-1.59853-0.66834-8.032641-0.79746-12.6867-0.83929c0.65067-13.7291 0.94123-19.7214 1.36628-28.5284l19.9701-11.511c7.80383 4.01071 13.1483 6.75601 25.3378 13.0341c-2.29087 4.044628-5.39769 9.67166-5.617 11.388c-1.02175 7.98979 2.39606 29.4657 6.49383 37.0578c2.71828 5.03631 11.1962 10.8844 13.3175 10.3353c2.12118-0.5491 7.76856-8.9346 8.35642-14.625c0.88595-8.57849-2.81585-29.1566-8.88183-34.4672c-0.77555-0.67905-2.3988-2.63001-4.13476-4.78243c12.6797 6.54611 24.1233 12.4943 35.0703 18.2147c-1.645 2.92832-3.58386 6.50715-3.72893 7.64389c-0.73251 5.72781 1.71551 21.1245 4.65283 26.5674c1.94865 3.61061 8.024419 7.80577 9.5451 7.41229c1.52067-0.39377 5.57571-6.41111 5.99735-10.4908c0.63528-6.1499-2.0219-20.896-6.37064-24.7043c-0.40557-0.35569-1.11767-1.16711-1.95686-2.17774c9.76745 5.13479 17.1466 9.07951 18.8836 10.1942c7.55947 4.8497 10.868 14.9499 14.7562 17.1912c5.21421 3.00522 24.4701 5.89027 27.8346 1.47601l0.0184 0.0117c0.0185-0.0294 0.0372-0.0509 0.0501-0.0797c0.0184-0.0306 0.0277-0.0578 0.0464-0.0831l-0.0184-0.0117c2.14783-5.1148-9.98374-20.3209-15.198-23.3256c-3.8878-2.24068-14.3029-0.0532-22.2899-4.163822c-1.83569-0.94467-8.94717-5.35202-18.2849-11.2288c1.29614 0.22004 2.35518 0.43098 2.86635 0.60413c5.47755 1.85582 19.6016-3.2239 24.6197-6.84801c3.32872-2.40416 6.51772-8.91404 6.09881-10.4257c-0.41877-1.51123-7.09451-4.66769-11.2011-4.54723c-6.19048 0.18172-20.7701 5.76361-25.3738 9.26093c-0.91376 0.69343-3.05098 4.160669-4.76881 7.04699c-10.4357-6.60418-21.3156-13.524-33.3347-21.2137c2.7354 0.42467 5.23795 0.85196 6.2148 1.18292c7.64078 2.58874 27.3439-4.49863 34.3421-9.55391c4.64302-3.35386 9.09654-12.4303 8.51228-14.5388c-0.58427-2.10844-9.89726-6.51305-15.6255-6.34514c-8.63502 0.25358-28.9758 8.03649-35.397 12.9145c-1.3791 1.04787-4.70665 6.54596-7.07004 10.5488c-11.5854-7.42752-16.6415-10.6724-24.0685-15.443v-23.0224c7.38246-4.74219 12.4327-7.98922 23.975-15.3884c2.3634 4.00281 5.69429 9.50101 7.07363 10.5488c6.42045 4.8783 26.7582 12.6647 35.3927 12.9183c5.72824 0.168 15.0413-4.23671 15.6255-6.34514c0.58426-2.10842-3.86537-11.1888-8.50854-14.543c-6.99895-5.05515-26.702-12.1425-34.3421-9.55391c-0.97684 0.33096-3.48327 0.76199-6.21838 1.18656c12.0188-7.68917 22.9028-14.612 33.339-21.2165c1.71797 2.88632 3.85169 6.35662 4.76537 7.05058c4.60272 3.49718 19.1829 9.07561 25.3738 9.25718c4.10669 0.12062 10.7859-3.03584 11.2048-4.54722c0.41876-1.51152-2.77396-8.0214-6.10255-10.4257c-5.01749-3.62412-19.1383-8.70371-24.6154-6.84801c-0.51133 0.17282-1.57379 0.38404-2.8701 0.60413c9.33832-5.87689 16.450099-10.2841 18.2849-11.2288c7.98702-4.11048 18.4058-1.92298 22.2928-4.16383c5.21419-3.00522 17.3452-18.2076 15.198-23.3227l0.0184-0.0117c-0.0184-0.0264-0.0277-0.0577-0.0464-0.0832c-0.0184-0.029-0.0334-0.0515-0.0464-0.0797l-0.0184 0.007c-3.36327-4.41424-22.6195-1.52561-27.8346 1.47961c-3.88753 2.2407-7.19999 12.3407-14.7592 17.1911c-1.73739 1.1147-9.11612 5.05931-18.8836 10.1942c0.83901-1.01057 1.55479-1.82236 1.9606-2.17774c4.34875-3.80757 7.00212-18.5584 6.3669-24.7071c-0.42134-4.079851-4.47293-10.0936-5.99374-10.4872c-1.52054-0.39353-7.59976 3.80182-9.54842 7.41228c-2.93758 5.44273-5.38546 20.8356-4.65283 26.5631c0.14472 1.13661 2.08753 4.71917 3.73239 7.64748c-10.947 5.7199-22.3949 11.6645-35.0746 18.2105c1.73611-2.15242 3.36269-4.099701 4.13821-4.77868c6.06614-5.31133 9.76817-25.8888 8.88199-34.4672c-0.58797-5.69102-6.23884-14.0801-8.36018-14.6293c-2.1212-0.54912-10.5988 5.29898-13.3172 10.3353c-4.09763 7.59213-7.51183 29.0718-6.49023 37.0621c0.21948 1.71624 3.3224 7.34342 5.61325 11.388c-12.238 6.30329-17.5812 9.0476-25.4357 13.0846l-19.9672-11.511c-0.42266-8.75387-0.71413-14.7443-1.36258-28.4234c4.65425-0.0419 11.0882-0.17078 12.6867-0.8393c7.44231-3.11175 24.365-16.8045 28.9025-24.1436c3.00997-4.86825 3.8455-15.121 2.30842-16.680901c-1.53694-1.55926-11.6375-2.25047-16.8688 0.0867c-7.88499 3.52319-23.8858 17.0143-25.4602 24.9141c-0.20129 1.01-1.08075 3.38835-2.08003 5.96531c-0.66107-14.2352-1.22436-27.1036-1.73567-39.4271c3.36283-0.042 7.43915-0.15409 8.49773-0.59691c5.33523-2.23076 17.4675-12.0453 20.7212-17.3062c2.15776-3.48999 2.75785-10.8418 1.65608-11.9595c-1.10189-1.11791-8.34606-1.61402-12.096 0.0615c-5.65271 2.52578-17.1208 12.1964-18.249 17.8597c-0.10578 0.52847-0.45235 1.55121-0.90951 2.78182c-0.42914-11.0117-0.69632-19.3635-0.59797-21.4236c0.42746-8.96033 7.53384-16.8721 7.53384-21.3545c0-6.0106-7.125-24.1018-12.6361-24.8021v-0.01855c-0.0315 0.0014-0.0631-0.0043-0.0947 0c-0.0315-0.0043-0.0631 0.0014-0.0946 0zm0.18831 159.419l6.53745 17.5448a20.1672 20.1326 0 0 1 6.68939 3.85631l18.4921-3.11821l-11.9365 14.405a20.1672 20.1326 0 0 1 0.38407 3.87441a20.1672 20.1326 0 0 1-0.39501 3.86349l11.9475 14.4166l-18.4734-3.11838a20.1672 20.1326 0 0 1-6.70753 3.8599l-6.53744 17.542l-6.53715-17.5448a20.1672 20.1326 0 0 1-6.68955-3.8563l-18.4921 3.11835l11.9368-14.405a20.1672 20.1326 0 0 1-0.38406-3.87442a20.1672 20.1326 0 0 1 0.39499-3.8635l-11.9476-14.4166l18.4734 3.11822a20.1672 20.1326 0 0 1 6.70754-3.85989z" /></g></svg></svg>